<mxfile host="Electron" agent="Mozilla/5.0 (Windows NT 10.0; Win64; x64) AppleWebKit/537.36 (KHTML, like Gecko) draw.io/27.0.9 Chrome/134.0.6998.205 Electron/35.4.0 Safari/537.36" version="27.0.9">
  <diagram name="Page-1" id="yzegYlo1FvkXa72tuVNs">
    <mxGraphModel dx="575" dy="494" grid="1" gridSize="10" guides="1" tooltips="1" connect="1" arrows="1" fold="1" page="1" pageScale="1" pageWidth="583" pageHeight="413" math="0" shadow="0">
      <root>
        <mxCell id="0" />
        <mxCell id="1" parent="0" />
        <mxCell id="lRAN_q3ErnS5ZKHJaVJO-41" value="" style="rounded=0;whiteSpace=wrap;html=1;movable=1;resizable=1;rotatable=1;deletable=1;editable=1;locked=0;connectable=1;fillColor=light-dark(#FFFFFF,#FFFFFF);fillStyle=solid;" vertex="1" parent="1">
          <mxGeometry width="580" height="410" as="geometry" />
        </mxCell>
        <mxCell id="lRAN_q3ErnS5ZKHJaVJO-1" value="&lt;b&gt;FMC&lt;/b&gt;" style="rounded=0;whiteSpace=wrap;html=1;fillColor=#ffe6cc;strokeColor=#d79b00;gradientColor=#FFD966;fontColor=light-dark(#000000,#000000);" vertex="1" parent="1">
          <mxGeometry x="120" y="130" width="40" height="120" as="geometry" />
        </mxCell>
        <mxCell id="lRAN_q3ErnS5ZKHJaVJO-3" value="" style="shape=flexArrow;endArrow=classic;html=1;rounded=0;endWidth=8.4;endSize=6.268;fillColor=#e1d5e7;strokeColor=#9673a6;" edge="1" parent="1">
          <mxGeometry width="50" height="50" relative="1" as="geometry">
            <mxPoint x="160" y="180" as="sourcePoint" />
            <mxPoint x="200" y="180" as="targetPoint" />
          </mxGeometry>
        </mxCell>
        <mxCell id="lRAN_q3ErnS5ZKHJaVJO-20" value="write" style="edgeLabel;html=1;align=right;verticalAlign=middle;resizable=0;points=[];labelBackgroundColor=none;fontColor=light-dark(#000000,#000000);" vertex="1" connectable="0" parent="lRAN_q3ErnS5ZKHJaVJO-3">
          <mxGeometry x="0.0738" y="1" relative="1" as="geometry">
            <mxPoint as="offset" />
          </mxGeometry>
        </mxCell>
        <mxCell id="lRAN_q3ErnS5ZKHJaVJO-4" value="" style="shape=flexArrow;endArrow=classic;html=1;rounded=0;endWidth=8.4;endSize=6.268;entryX=1;entryY=0.75;entryDx=0;entryDy=0;fillColor=#d5e8d4;strokeColor=#82b366;" edge="1" parent="1">
          <mxGeometry width="50" height="50" relative="1" as="geometry">
            <mxPoint x="200" y="210" as="sourcePoint" />
            <mxPoint x="160" y="210" as="targetPoint" />
          </mxGeometry>
        </mxCell>
        <mxCell id="lRAN_q3ErnS5ZKHJaVJO-21" value="read&amp;nbsp;" style="edgeLabel;html=1;align=left;verticalAlign=middle;resizable=0;points=[];labelBackgroundColor=none;fontColor=light-dark(#000000,#000000);" vertex="1" connectable="0" parent="lRAN_q3ErnS5ZKHJaVJO-4">
          <mxGeometry x="0.22" relative="1" as="geometry">
            <mxPoint as="offset" />
          </mxGeometry>
        </mxCell>
        <mxCell id="lRAN_q3ErnS5ZKHJaVJO-5" value="&lt;b&gt;FMC&lt;/b&gt;&lt;div&gt;&lt;b&gt;APB3&lt;/b&gt;&lt;/div&gt;&lt;div&gt;&lt;i&gt;Bridge&lt;/i&gt;&lt;/div&gt;" style="rounded=0;whiteSpace=wrap;html=1;fillColor=#dae8fc;strokeColor=#6c8ebf;gradientColor=#95C3FF;fontColor=light-dark(#000000,#000000);" vertex="1" parent="1">
          <mxGeometry x="200" y="130" width="40" height="120" as="geometry" />
        </mxCell>
        <mxCell id="lRAN_q3ErnS5ZKHJaVJO-8" value="&lt;b&gt;APB3&lt;/b&gt;&lt;div&gt;&lt;i&gt;Decoder&lt;/i&gt;&lt;/div&gt;" style="rounded=0;whiteSpace=wrap;html=1;fillColor=#dae8fc;strokeColor=#6c8ebf;gradientColor=#95C3FF;fontColor=light-dark(#000000,#000000);" vertex="1" parent="1">
          <mxGeometry x="280" y="50" width="60" height="280" as="geometry" />
        </mxCell>
        <mxCell id="lRAN_q3ErnS5ZKHJaVJO-15" value="&lt;b&gt;UART&lt;/b&gt;&lt;div&gt;Controller&lt;/div&gt;" style="rounded=0;whiteSpace=wrap;html=1;fillColor=#dae8fc;strokeColor=#6c8ebf;gradientColor=#95C3FF;fontColor=light-dark(#000000,#000000);" vertex="1" parent="1">
          <mxGeometry x="380" y="50" width="60" height="80" as="geometry" />
        </mxCell>
        <mxCell id="lRAN_q3ErnS5ZKHJaVJO-16" value="&lt;b&gt;GPIO&lt;/b&gt;&lt;div&gt;Controller&lt;/div&gt;" style="rounded=0;whiteSpace=wrap;html=1;fillColor=#dae8fc;strokeColor=#6c8ebf;gradientColor=#95C3FF;fontColor=light-dark(#000000,#000000);" vertex="1" parent="1">
          <mxGeometry x="380" y="150" width="60" height="80" as="geometry" />
        </mxCell>
        <mxCell id="lRAN_q3ErnS5ZKHJaVJO-17" value="More APB3&lt;div&gt;Slaves&lt;/div&gt;" style="rounded=0;whiteSpace=wrap;html=1;fillColor=#dae8fc;strokeColor=#6c8ebf;gradientColor=#95C3FF;fontStyle=2;fontColor=light-dark(#000000,#000000);" vertex="1" parent="1">
          <mxGeometry x="380" y="250" width="60" height="80" as="geometry" />
        </mxCell>
        <mxCell id="lRAN_q3ErnS5ZKHJaVJO-23" value="" style="shape=flexArrow;endArrow=classic;html=1;rounded=0;endWidth=8.4;endSize=6.268;fillColor=#e1d5e7;strokeColor=#9673a6;" edge="1" parent="1">
          <mxGeometry width="50" height="50" relative="1" as="geometry">
            <mxPoint x="240" y="180" as="sourcePoint" />
            <mxPoint x="280" y="180" as="targetPoint" />
          </mxGeometry>
        </mxCell>
        <mxCell id="lRAN_q3ErnS5ZKHJaVJO-24" value="write" style="edgeLabel;html=1;align=right;verticalAlign=middle;resizable=0;points=[];labelBackgroundColor=none;fontColor=light-dark(#000000,#000000);" vertex="1" connectable="0" parent="lRAN_q3ErnS5ZKHJaVJO-23">
          <mxGeometry x="0.0738" y="1" relative="1" as="geometry">
            <mxPoint as="offset" />
          </mxGeometry>
        </mxCell>
        <mxCell id="lRAN_q3ErnS5ZKHJaVJO-25" value="" style="shape=flexArrow;endArrow=classic;html=1;rounded=0;endWidth=8.4;endSize=6.268;entryX=1;entryY=0.75;entryDx=0;entryDy=0;fillColor=#d5e8d4;strokeColor=#82b366;" edge="1" parent="1">
          <mxGeometry width="50" height="50" relative="1" as="geometry">
            <mxPoint x="280" y="210" as="sourcePoint" />
            <mxPoint x="240" y="210" as="targetPoint" />
          </mxGeometry>
        </mxCell>
        <mxCell id="lRAN_q3ErnS5ZKHJaVJO-26" value="read&amp;nbsp;" style="edgeLabel;html=1;align=left;verticalAlign=middle;resizable=0;points=[];labelBackgroundColor=none;fontColor=light-dark(#000000,#000000);" vertex="1" connectable="0" parent="lRAN_q3ErnS5ZKHJaVJO-25">
          <mxGeometry x="0.22" relative="1" as="geometry">
            <mxPoint as="offset" />
          </mxGeometry>
        </mxCell>
        <mxCell id="lRAN_q3ErnS5ZKHJaVJO-27" value="" style="shape=flexArrow;endArrow=classic;html=1;rounded=0;endWidth=8.4;endSize=6.268;fillColor=#e1d5e7;strokeColor=#9673a6;" edge="1" parent="1">
          <mxGeometry width="50" height="50" relative="1" as="geometry">
            <mxPoint x="340" y="80" as="sourcePoint" />
            <mxPoint x="380" y="80" as="targetPoint" />
          </mxGeometry>
        </mxCell>
        <mxCell id="lRAN_q3ErnS5ZKHJaVJO-28" value="write" style="edgeLabel;html=1;align=right;verticalAlign=middle;resizable=0;points=[];labelBackgroundColor=none;fontColor=light-dark(#000000,#000000);" vertex="1" connectable="0" parent="lRAN_q3ErnS5ZKHJaVJO-27">
          <mxGeometry x="0.0738" y="1" relative="1" as="geometry">
            <mxPoint as="offset" />
          </mxGeometry>
        </mxCell>
        <mxCell id="lRAN_q3ErnS5ZKHJaVJO-29" value="" style="shape=flexArrow;endArrow=classic;html=1;rounded=0;endWidth=8.4;endSize=6.268;entryX=1;entryY=0.75;entryDx=0;entryDy=0;fillColor=#d5e8d4;strokeColor=#82b366;" edge="1" parent="1">
          <mxGeometry width="50" height="50" relative="1" as="geometry">
            <mxPoint x="380" y="110" as="sourcePoint" />
            <mxPoint x="340" y="110" as="targetPoint" />
          </mxGeometry>
        </mxCell>
        <mxCell id="lRAN_q3ErnS5ZKHJaVJO-30" value="read&amp;nbsp;" style="edgeLabel;html=1;align=left;verticalAlign=middle;resizable=0;points=[];labelBackgroundColor=none;fontColor=light-dark(#000000,#000000);" vertex="1" connectable="0" parent="lRAN_q3ErnS5ZKHJaVJO-29">
          <mxGeometry x="0.22" relative="1" as="geometry">
            <mxPoint as="offset" />
          </mxGeometry>
        </mxCell>
        <mxCell id="lRAN_q3ErnS5ZKHJaVJO-31" value="" style="shape=flexArrow;endArrow=classic;html=1;rounded=0;endWidth=8.4;endSize=6.268;fillColor=#e1d5e7;strokeColor=#9673a6;" edge="1" parent="1">
          <mxGeometry width="50" height="50" relative="1" as="geometry">
            <mxPoint x="340" y="180" as="sourcePoint" />
            <mxPoint x="380" y="180" as="targetPoint" />
          </mxGeometry>
        </mxCell>
        <mxCell id="lRAN_q3ErnS5ZKHJaVJO-32" value="write" style="edgeLabel;html=1;align=right;verticalAlign=middle;resizable=0;points=[];labelBackgroundColor=none;fontColor=light-dark(#000000,#000000);" vertex="1" connectable="0" parent="lRAN_q3ErnS5ZKHJaVJO-31">
          <mxGeometry x="0.0738" y="1" relative="1" as="geometry">
            <mxPoint as="offset" />
          </mxGeometry>
        </mxCell>
        <mxCell id="lRAN_q3ErnS5ZKHJaVJO-33" value="" style="shape=flexArrow;endArrow=classic;html=1;rounded=0;endWidth=8.4;endSize=6.268;entryX=1;entryY=0.75;entryDx=0;entryDy=0;fillColor=#d5e8d4;strokeColor=#82b366;" edge="1" parent="1">
          <mxGeometry width="50" height="50" relative="1" as="geometry">
            <mxPoint x="380" y="210" as="sourcePoint" />
            <mxPoint x="340" y="210" as="targetPoint" />
          </mxGeometry>
        </mxCell>
        <mxCell id="lRAN_q3ErnS5ZKHJaVJO-34" value="read&amp;nbsp;" style="edgeLabel;html=1;align=left;verticalAlign=middle;resizable=0;points=[];labelBackgroundColor=none;fontColor=light-dark(#000000,#000000);" vertex="1" connectable="0" parent="lRAN_q3ErnS5ZKHJaVJO-33">
          <mxGeometry x="0.22" relative="1" as="geometry">
            <mxPoint as="offset" />
          </mxGeometry>
        </mxCell>
        <mxCell id="lRAN_q3ErnS5ZKHJaVJO-35" value="" style="shape=flexArrow;endArrow=classic;html=1;rounded=0;endWidth=8.4;endSize=6.268;fillColor=#e1d5e7;strokeColor=#9673a6;" edge="1" parent="1">
          <mxGeometry width="50" height="50" relative="1" as="geometry">
            <mxPoint x="340" y="274.71" as="sourcePoint" />
            <mxPoint x="380" y="274.71" as="targetPoint" />
          </mxGeometry>
        </mxCell>
        <mxCell id="lRAN_q3ErnS5ZKHJaVJO-36" value="write" style="edgeLabel;html=1;align=right;verticalAlign=middle;resizable=0;points=[];labelBackgroundColor=none;fontColor=light-dark(#000000,#000000);" vertex="1" connectable="0" parent="lRAN_q3ErnS5ZKHJaVJO-35">
          <mxGeometry x="0.0738" y="1" relative="1" as="geometry">
            <mxPoint as="offset" />
          </mxGeometry>
        </mxCell>
        <mxCell id="lRAN_q3ErnS5ZKHJaVJO-37" value="" style="shape=flexArrow;endArrow=classic;html=1;rounded=0;endWidth=8.4;endSize=6.268;entryX=1;entryY=0.75;entryDx=0;entryDy=0;fillColor=#d5e8d4;strokeColor=#82b366;" edge="1" parent="1">
          <mxGeometry width="50" height="50" relative="1" as="geometry">
            <mxPoint x="380" y="304.71" as="sourcePoint" />
            <mxPoint x="340" y="304.71" as="targetPoint" />
          </mxGeometry>
        </mxCell>
        <mxCell id="lRAN_q3ErnS5ZKHJaVJO-38" value="read&amp;nbsp;" style="edgeLabel;html=1;align=left;verticalAlign=middle;resizable=0;points=[];labelBackgroundColor=none;fontColor=light-dark(#000000,#000000);" vertex="1" connectable="0" parent="lRAN_q3ErnS5ZKHJaVJO-37">
          <mxGeometry x="0.22" relative="1" as="geometry">
            <mxPoint as="offset" />
          </mxGeometry>
        </mxCell>
        <mxCell id="lRAN_q3ErnS5ZKHJaVJO-40" value="&lt;b&gt;Figrure 1&amp;nbsp;&lt;/b&gt;&lt;div&gt;&lt;i&gt;The diagram of FMCAPB3 bridge&lt;/i&gt;&lt;/div&gt;" style="text;html=1;align=center;verticalAlign=middle;whiteSpace=wrap;rounded=0;fontColor=light-dark(#000000,#000000);" vertex="1" parent="1">
          <mxGeometry x="165" y="360" width="250" height="30" as="geometry" />
        </mxCell>
      </root>
    </mxGraphModel>
  </diagram>
</mxfile>
